<svg width="17" height="16" viewBox="0 0 17 16" fill="none" xmlns="http://www.w3.org/2000/svg">
<g clip-path="url(#clip0_259_4317)">
<path d="M8.5918 11.3333C8.32046 11.3333 8.06313 11.3193 7.81846 11.2913C8.26713 9.98267 8.80246 9.344 9.70913 8.108C9.92713 7.81133 9.96846 7.42533 9.70713 7.16533C9.44646 6.90533 9.02046 6.90267 8.76446 7.16733C6.6598 9.344 5.92513 12.1447 5.92513 12.6667C5.92513 13.0347 5.62713 13.3333 5.25846 13.3333C4.8898 13.3333 4.5918 13.0347 4.5918 12.6667C4.5918 11.996 4.88246 10.872 5.48846 9.604C5.34046 9.17333 5.2538 8.648 5.25846 8C5.2798 4.99667 7.58713 2.95733 12.5918 4C13.3558 9.9 10.5918 11.3333 8.5918 11.3333Z" fill="white"/>
</g>
<defs>
<clipPath id="clip0_259_4317">
<rect width="16" height="16" fill="white" transform="translate(0.591797)"/>
</clipPath>
</defs>
</svg>
