<svg width="16" height="17" viewBox="0 0 16 17" fill="none" xmlns="http://www.w3.org/2000/svg">
<path d="M2.33398 8.84245H13.6673M8.00065 3.17578V14.5091" stroke="white" stroke-width="1.33333" stroke-linecap="round" stroke-linejoin="round"/>
<path d="M1.66602 2.50977H2.99935V3.8431H1.66602V2.50977ZM4.66602 2.50977H5.99935V3.8431H4.66602V2.50977ZM9.99935 2.50977H11.3327V3.8431H9.99935V2.50977ZM12.9993 2.50977H14.3327V3.8431H12.9993V2.50977ZM12.9993 5.50977H14.3327V6.8431H12.9993V5.50977ZM1.66602 5.50977H2.99935V6.8431H1.66602V5.50977ZM1.66602 13.8431H2.99935V15.1764H1.66602V13.8431ZM4.66602 13.8431H5.99935V15.1764H4.66602V13.8431ZM9.99935 13.8431H11.3327V15.1764H9.99935V13.8431ZM12.9993 13.8431H14.3327V15.1764H12.9993V13.8431ZM12.9993 10.8431H14.3327V12.1764H12.9993V10.8431ZM1.66602 10.8431H2.99935V12.1764H1.66602V10.8431Z" fill="white"/>
</svg>
